<svg width="48" height="48" viewBox="0 0 48 48" fill="none" xmlns="http://www.w3.org/2000/svg">
<g clip-path="url(#clip0_3_1642)">
<path d="M15.48 36.0819C15.2191 36.0389 14.9717 35.9362 14.757 35.7819C14.4962 35.5993 14.2923 35.3469 14.1684 35.0536C14.0446 34.7604 14.006 34.4381 14.057 34.1239L14.573 30.8689C13.2294 29.6865 12.2003 28.1891 11.5781 26.5109C10.9559 24.8328 10.76 23.0264 11.008 21.2539C11.989 15.0639 18.608 10.9539 25.773 12.0839C32.938 13.2139 37.96 19.1769 36.98 25.3679C36 31.5589 29.38 35.6679 22.216 34.5379C21.4767 34.4205 20.747 34.2487 20.033 34.0239L16.564 35.8929C16.234 36.0714 15.8545 36.1364 15.484 36.0779M25.456 14.0879C19.405 13.1299 13.827 16.4879 13.021 21.5729C12.8258 23.0428 13.0031 24.5382 13.5365 25.9217C14.07 27.3052 14.9425 28.5325 16.074 29.4909C16.2833 29.6802 16.4421 29.9187 16.5362 30.1847C16.6303 30.4508 16.6567 30.7361 16.613 31.0149L16.173 33.7959L19.187 32.1739C19.3916 32.0649 19.616 31.9982 19.8469 31.9777C20.0778 31.9573 20.3104 31.9835 20.531 32.0549C21.1842 32.2664 21.8529 32.4265 22.531 32.5339C28.583 33.4929 34.16 30.1339 34.966 25.0499C35.772 19.9659 31.506 15.0499 25.454 14.0879" fill="#475259"/>
<path d="M18.483 20.156C18.2257 20.1153 17.963 20.1256 17.7097 20.1865C17.4565 20.2473 17.2176 20.3574 17.007 20.5105C16.7963 20.6637 16.6178 20.8568 16.4817 21.0789C16.3457 21.301 16.2547 21.5477 16.214 21.805C16.1733 22.0622 16.1836 22.325 16.2445 22.5782C16.3053 22.8315 16.4154 23.0703 16.5686 23.281C16.7217 23.4917 16.9148 23.6702 17.1369 23.8062C17.359 23.9423 17.6057 24.0333 17.863 24.074C17.9671 24.0912 18.0724 24.0999 18.178 24.1C18.6761 24.0977 19.1553 23.9082 19.5201 23.569C19.8849 23.2298 20.1088 22.7657 20.1472 22.269C20.1857 21.7723 20.0358 21.2793 19.7275 20.888C19.4191 20.4967 18.9749 20.2348 18.483 20.156Z" fill="#475259"/>
<path d="M24.31 21.2169C24.0518 21.1741 23.7877 21.1828 23.5328 21.2425C23.278 21.3022 23.0374 21.4117 22.8251 21.5648C22.6128 21.7179 22.4328 21.9115 22.2957 22.1344C22.1585 22.3573 22.0668 22.6052 22.0258 22.8637C21.9848 23.1222 21.9954 23.3863 22.057 23.6407C22.1185 23.8951 22.2298 24.1348 22.3844 24.346C22.539 24.5572 22.7339 24.7358 22.9578 24.8713C23.1817 25.0069 23.4302 25.0968 23.689 25.1359C23.7922 25.1523 23.8965 25.1607 24.001 25.1609C24.4996 25.1599 24.9795 24.9713 25.3453 24.6324C25.7111 24.2936 25.9359 23.8295 25.9749 23.3324C26.014 22.8354 25.8645 22.3418 25.5562 21.95C25.2479 21.5582 24.8033 21.2968 24.311 21.2179" fill="#475259"/>
<path d="M30.08 22.346C30.4482 22.4044 30.7908 22.5706 31.0645 22.8237C31.3382 23.0768 31.5307 23.4054 31.6177 23.7679C31.7047 24.1304 31.6823 24.5106 31.5532 24.8603C31.4242 25.2101 31.1943 25.5137 30.8927 25.7328C30.5911 25.9519 30.2313 26.0767 29.8588 26.0913C29.4862 26.1059 29.1178 26.0098 28.7999 25.815C28.482 25.6202 28.2291 25.3355 28.073 24.997C27.9169 24.6585 27.8647 24.2812 27.923 23.913C27.9617 23.6685 28.0482 23.434 28.1775 23.2229C28.3069 23.0118 28.4766 22.8282 28.6769 22.6827C28.8772 22.5372 29.1042 22.4326 29.3449 22.3748C29.5857 22.317 29.8355 22.3072 30.08 22.346Z" fill="#5AB4C5"/>
</g>
<defs>
<clipPath id="clip0_3_1642">
<rect width="48" height="48" fill="white"/>
</clipPath>
</defs>
</svg>
